<svg width="20" height="20" viewBox="0 0 20 20" fill="ааа" xmlns="http://www.w3.org/2000/svg">
<path fill-rule="evenodd" clip-rule="evenodd" d="M0.640625 4.37565C0.640625 4.04198 0.91112 3.77148 1.24479 3.77148H18.7448C19.0785 3.77148 19.349 4.04198 19.349 4.37565V15.6257C19.349 15.9593 19.0785 16.2298 18.7448 16.2298H1.24479C0.91112 16.2298 0.640625 15.9593 0.640625 15.6257V4.37565ZM1.84896 4.97982V15.0215H18.1406V4.97982H1.84896ZM2.51562 11.2507C2.51562 10.917 2.78612 10.6465 3.11979 10.6465H5.61979C5.95346 10.6465 6.22396 10.917 6.22396 11.2507C6.22396 11.5843 5.95346 11.8548 5.61979 11.8548H3.11979C2.78612 11.8548 2.51562 11.5843 2.51562 11.2507ZM2.51562 13.1257C2.51562 12.792 2.78612 12.5215 3.11979 12.5215H6.86979C7.20346 12.5215 7.47396 12.792 7.47396 13.1257C7.47396 13.4593 7.20346 13.7298 6.86979 13.7298H3.11979C2.78612 13.7298 2.51562 13.4593 2.51562 13.1257Z" fill="#1D2122"/>
<path d="M1.25 6.875V8.125H18.75V6.875H1.25Z" fill="#1D2122"/>
<path fill-rule="evenodd" clip-rule="evenodd" d="M0.640625 6.87565C0.640625 6.54198 0.91112 6.27148 1.24479 6.27148H18.7448C19.0785 6.27148 19.349 6.54198 19.349 6.87565V8.12565C19.349 8.45932 19.0785 8.72982 18.7448 8.72982H1.24479C0.91112 8.72982 0.640625 8.45932 0.640625 8.12565V6.87565ZM1.84896 7.47982V7.52148H18.1406V7.47982H1.84896Z" fill="#1D2122"/>
</svg>
