<svg width="24" height="24" viewBox="0 0 24 24" fill="none" xmlns="http://www.w3.org/2000/svg">
<path d="M8.86328 9.2749H10.0335V16.2961H8.86328V9.2749ZM12.3739 9.2749H13.5441V16.2961H12.3739V9.2749Z" fill="#7E7E7E"/>
<path d="M4.64453 6.28574V7.42861H5.7874V18.8573C5.7874 19.1604 5.90781 19.4511 6.12214 19.6654C6.33647 19.8798 6.62716 20.0002 6.93027 20.0002H16.0732C16.3763 20.0002 16.667 19.8798 16.8814 19.6654C17.0957 19.4511 17.2161 19.1604 17.2161 18.8573V7.42861H18.359V6.28574H4.64453ZM6.93027 18.8573V7.42861H16.0732V18.8573H6.93027ZM9.21601 4H13.7875V5.14287H9.21601V4Z" fill="#7E7E7E"/>
</svg>
