<svg width="24" height="24" viewBox="0 0 24 24" fill="none" xmlns="http://www.w3.org/2000/svg">
<path d="M14.883 16.2167L10.7255 11.9516L14.883 7.68658C14.9575 7.61038 14.9991 7.50808 14.9991 7.40156C14.9991 7.29504 14.9575 7.19274 14.883 7.11654C14.8469 7.07964 14.8037 7.05033 14.7561 7.03032C14.7085 7.01031 14.6574 7 14.6057 7C14.554 7 14.5029 7.01031 14.4553 7.03032C14.4077 7.05033 14.3645 7.07964 14.3284 7.11654L9.90458 11.6538C9.82692 11.7335 9.78345 11.8404 9.78345 11.9516C9.78345 12.0629 9.82692 12.1698 9.90458 12.2495L14.3275 16.7867C14.3637 16.8239 14.4069 16.8534 14.4547 16.8736C14.5025 16.8938 14.5538 16.9042 14.6057 16.9042C14.6576 16.9042 14.7089 16.8938 14.7567 16.8736C14.8045 16.8534 14.8477 16.8239 14.8839 16.7867C14.9583 16.7105 15 16.6082 15 16.5017C15 16.3952 14.9583 16.2929 14.8839 16.2167L14.883 16.2167Z" fill="#7E7E7E"/>
</svg>
