<svg width="32" height="32" viewBox="0 0 32 32" fill="none" xmlns="http://www.w3.org/2000/svg">
<path d="M16.5385 18.6668C16.5385 18.9497 16.4262 19.221 16.2261 19.4211C16.0261 19.6211 15.7548 19.7335 15.4719 19.7335C15.189 19.7335 14.9177 19.6211 14.7176 19.4211C14.5176 19.221 14.4052 18.9497 14.4052 18.6668C14.4052 18.3839 14.5176 18.1126 14.7176 17.9126C14.9177 17.7125 15.189 17.6002 15.4719 17.6002C15.7548 17.6002 16.0261 17.7125 16.2261 17.9126C16.4262 18.1126 16.5385 18.3839 16.5385 18.6668ZM14.6719 10.4002V15.7335C14.6719 15.9457 14.7562 16.1492 14.9062 16.2992C15.0562 16.4492 15.2597 16.5335 15.4719 16.5335C15.684 16.5335 15.8875 16.4492 16.0376 16.2992C16.1876 16.1492 16.2719 15.9457 16.2719 15.7335V10.4002C16.2719 10.188 16.1876 9.98451 16.0376 9.83448C15.8875 9.68445 15.684 9.60016 15.4719 9.60016C15.2597 9.60016 15.0562 9.68445 14.9062 9.83448C14.7562 9.98451 14.6719 10.188 14.6719 10.4002ZM6.67188 8.00016C6.67188 7.29292 6.95283 6.61464 7.45292 6.11454C7.95302 5.61445 8.6313 5.3335 9.33854 5.3335H21.6052C21.9554 5.3335 22.3022 5.40247 22.6257 5.53648C22.9492 5.6705 23.2432 5.86692 23.4908 6.11454C23.7385 6.36217 23.9349 6.65614 24.0689 6.97967C24.2029 7.30321 24.2719 7.64997 24.2719 8.00016V23.2002C24.2719 23.4123 24.1876 23.6158 24.0376 23.7659C23.8875 23.9159 23.684 24.0002 23.4719 24.0002H8.27188C8.27188 24.2831 8.38426 24.5544 8.58429 24.7544C8.78433 24.9545 9.05564 25.0668 9.33854 25.0668H23.4719C23.684 25.0668 23.8875 25.1511 24.0376 25.3011C24.1876 25.4512 24.2719 25.6547 24.2719 25.8668C24.2719 26.079 24.1876 26.2825 24.0376 26.4325C23.8875 26.5825 23.684 26.6668 23.4719 26.6668H9.33854C8.6313 26.6668 7.95302 26.3859 7.45292 25.8858C6.95283 25.3857 6.67188 24.7074 6.67188 24.0002V8.00016ZM22.6719 22.4002V8.00016C22.6719 7.71727 22.5595 7.44595 22.3595 7.24592C22.1594 7.04588 21.8881 6.9335 21.6052 6.9335H9.33854C9.05564 6.9335 8.78433 7.04588 8.58429 7.24592C8.38426 7.44595 8.27188 7.71727 8.27188 8.00016V22.4002H22.6719Z" fill="#FFAA17"/>
</svg>
