<svg width="24" height="24" viewBox="0 0 24 24" fill="none" xmlns="http://www.w3.org/2000/svg">
<path d="M3.19776 3.1974C3.08344 3.31169 3.01394 3.46321 3.00188 3.6244C2.98982 3.7856 3.03602 3.94577 3.13206 4.07579L3.19776 4.15139L6.82831 7.78284C5.05806 9.02359 3.79435 10.8608 3.26886 12.9578C3.22834 13.1304 3.25737 13.312 3.34968 13.4634C3.44199 13.6148 3.59016 13.7238 3.76217 13.7668C3.93418 13.8099 4.11622 13.7835 4.26894 13.6934C4.42166 13.6033 4.5328 13.4567 4.57834 13.2854C5.04534 11.4242 6.19553 9.80686 7.80029 8.75483L9.42927 10.3838C8.77857 11.0637 8.42001 11.9715 8.43039 12.9125C8.44077 13.8536 8.81927 14.7532 9.4848 15.4186C10.1503 16.084 11.05 16.4623 11.9911 16.4726C12.9321 16.4828 13.8398 16.124 14.5196 15.4732L19.8466 20.8012C19.9671 20.9219 20.1288 20.9926 20.2992 20.999C20.4696 21.0054 20.6362 20.9471 20.7654 20.8357C20.8945 20.7243 20.9768 20.5682 20.9955 20.3986C21.0142 20.2291 20.9681 20.0588 20.8663 19.9219L20.8006 19.8463L15.299 14.3437L15.2999 14.3419L14.2199 13.2638L11.6369 10.6808H11.6387L9.04677 8.09153L9.04767 8.08973L8.02799 7.07275L4.15174 3.1974C4.02518 3.071 3.85362 3 3.67475 3C3.49588 3 3.32432 3.071 3.19776 3.1974ZM10.3833 11.3378L13.5647 14.5201C13.1404 14.93 12.572 15.1568 11.9821 15.1517C11.3921 15.1465 10.8278 14.9099 10.4107 14.4927C9.9935 14.0756 9.75687 13.5113 9.75175 12.9213C9.74662 12.3314 9.97341 11.7621 10.3833 11.3378ZM11.9996 6.14936C11.0996 6.14936 10.2267 6.28256 9.39957 6.53186L10.5129 7.64424C12.4384 7.26297 14.4369 7.63622 16.095 8.68681C17.7532 9.73741 18.9442 11.385 19.4218 13.289C19.4685 13.459 19.5798 13.604 19.7319 13.6931C19.8841 13.7821 20.0651 13.808 20.2362 13.7654C20.4072 13.7227 20.5548 13.6148 20.6474 13.4647C20.7399 13.3146 20.77 13.1343 20.7313 12.9623C20.2433 11.016 19.119 9.28857 17.5371 8.05425C15.9551 6.81993 14.0061 6.14948 11.9996 6.14936ZM12.1751 9.30832L15.596 12.7283C15.5517 11.8354 15.1771 10.9909 14.5449 10.3588C13.9127 9.72675 13.068 9.35233 12.1751 9.30832Z" fill="#7E7E7E"/>
</svg>
