<svg width="24" height="24" viewBox="0 0 24 24" fill="none" xmlns="http://www.w3.org/2000/svg">
<path d="M12.0304 9.89418C12.9064 9.89418 13.7465 10.2422 14.366 10.8616C14.9854 11.481 15.3334 12.3211 15.3334 13.1971C15.3334 14.0731 14.9854 14.9132 14.366 15.5326C13.7465 16.152 12.9064 16.5 12.0304 16.5C11.1545 16.5 10.3143 16.152 9.69493 15.5326C9.07551 14.9132 8.72753 14.0731 8.72753 13.1971C8.72753 12.3211 9.07551 11.481 9.69493 10.8616C10.3143 10.2422 11.1545 9.89418 12.0304 9.89418ZM12.0304 11.1328C11.4829 11.1328 10.9579 11.3503 10.5707 11.7374C10.1836 12.1245 9.96612 12.6496 9.96612 13.1971C9.96612 13.7446 10.1836 14.2696 10.5707 14.6568C10.9579 15.0439 11.4829 15.2614 12.0304 15.2614C12.5779 15.2614 13.103 15.0439 13.4901 14.6568C13.8773 14.2696 14.0948 13.7446 14.0948 13.1971C14.0948 12.6496 13.8773 12.1245 13.4901 11.7374C13.103 11.3503 12.5779 11.1328 12.0304 11.1328ZM12.0304 7C15.8395 7 19.1284 9.60104 20.0408 13.2458C20.0808 13.4051 20.0558 13.5738 19.9714 13.7147C19.887 13.8556 19.7501 13.9573 19.5908 13.9972C19.4315 14.0372 19.2628 14.0122 19.1219 13.9278C18.981 13.8434 18.8794 13.7065 18.8394 13.5472C18.4571 12.0307 17.5795 10.6853 16.3457 9.72419C15.112 8.7631 13.5927 8.24138 12.0287 8.24176C10.4648 8.24214 8.94578 8.76459 7.71248 9.72628C6.47919 10.688 5.60223 12.0338 5.22066 13.5505C5.20098 13.6294 5.16594 13.7037 5.11755 13.7691C5.06916 13.8345 5.00836 13.8898 4.93862 13.9317C4.86888 13.9736 4.79158 14.0013 4.71111 14.0134C4.63065 14.0254 4.5486 14.0214 4.46966 14.0018C4.39072 13.9821 4.31643 13.947 4.25103 13.8987C4.18563 13.8503 4.1304 13.7895 4.08849 13.7197C4.04659 13.65 4.01883 13.5727 4.00681 13.4922C3.99478 13.4117 3.99872 13.3297 4.0184 13.2508C4.46621 11.465 5.49782 9.87995 6.94941 8.74746C8.401 7.61497 10.1893 6.99993 12.0304 7Z" fill="#7E7E7E"/>
</svg>
