<svg width="24" height="24" viewBox="0 0 24 24" fill="none" xmlns="http://www.w3.org/2000/svg">
<path d="M12.4 14C12.4 14.2122 12.3157 14.4157 12.1657 14.5657C12.0157 14.7157 11.8122 14.8 11.6 14.8C11.3878 14.8 11.1843 14.7157 11.0343 14.5657C10.8843 14.4157 10.8 14.2122 10.8 14C10.8 13.7878 10.8843 13.5843 11.0343 13.4343C11.1843 13.2843 11.3878 13.2 11.6 13.2C11.8122 13.2 12.0157 13.2843 12.1657 13.4343C12.3157 13.5843 12.4 13.7878 12.4 14ZM11 7.8V11.8C11 11.9591 11.0632 12.1117 11.1757 12.2243C11.2883 12.3368 11.4409 12.4 11.6 12.4C11.7591 12.4 11.9117 12.3368 12.0243 12.2243C12.1368 12.1117 12.2 11.9591 12.2 11.8V7.8C12.2 7.64087 12.1368 7.48826 12.0243 7.37574C11.9117 7.26321 11.7591 7.2 11.6 7.2C11.4409 7.2 11.2883 7.26321 11.1757 7.37574C11.0632 7.48826 11 7.64087 11 7.8ZM5 6C5 5.46957 5.21071 4.96086 5.58579 4.58579C5.96086 4.21071 6.46957 4 7 4H16.2C16.4626 4 16.7227 4.05173 16.9654 4.15224C17.208 4.25275 17.4285 4.40007 17.6142 4.58579C17.7999 4.7715 17.9473 4.99198 18.0478 5.23463C18.1483 5.47728 18.2 5.73736 18.2 6V17.4C18.2 17.5591 18.1368 17.7117 18.0243 17.8243C17.9117 17.9368 17.7591 18 17.6 18H6.2C6.2 18.2122 6.28429 18.4157 6.43431 18.5657C6.58434 18.7157 6.78783 18.8 7 18.8H17.6C17.7591 18.8 17.9117 18.8632 18.0243 18.9757C18.1368 19.0883 18.2 19.2409 18.2 19.4C18.2 19.5591 18.1368 19.7117 18.0243 19.8243C17.9117 19.9368 17.7591 20 17.6 20H7C6.46957 20 5.96086 19.7893 5.58579 19.4142C5.21071 19.0391 5 18.5304 5 18V6ZM17 16.8V6C17 5.78783 16.9157 5.58434 16.7657 5.43431C16.6157 5.28429 16.4122 5.2 16.2 5.2H7C6.78783 5.2 6.58434 5.28429 6.43431 5.43431C6.28429 5.58434 6.2 5.78783 6.2 6V16.8H17Z" fill="#7E7E7E"/>
</svg>
