<svg width="24" height="24" viewBox="0 0 24 24" fill="none" xmlns="http://www.w3.org/2000/svg">
<path d="M11.434 9.43677C11.3121 9.31055 11.2446 9.1415 11.2461 8.96602C11.2477 8.79055 11.3181 8.62269 11.4421 8.49861C11.5662 8.37453 11.7341 8.30414 11.9095 8.30262C12.085 8.30109 12.2541 8.36855 12.3803 8.49046L15.9501 12.0736C15.9812 12.1047 16.0059 12.1416 16.0228 12.1823C16.0397 12.2229 16.0484 12.2665 16.0484 12.3105C16.0484 12.3545 16.0397 12.3981 16.0228 12.4388C16.0059 12.4794 15.9812 12.5163 15.9501 12.5474L12.3803 16.1292C12.2541 16.2511 12.085 16.3186 11.9095 16.3171C11.7341 16.3155 11.5662 16.2452 11.4421 16.1211C11.3181 15.997 11.2477 15.8291 11.2461 15.6537C11.2446 15.4782 11.3121 15.3091 11.434 15.1829L13.6371 12.969L4.66925 12.9691C4.49175 12.9691 4.32152 12.8985 4.19602 12.773C4.07051 12.6475 4 12.4773 4 12.2998C4 12.1223 4.07051 11.9521 4.19602 11.8266C4.32152 11.7011 4.49175 11.6306 4.66925 11.6306L13.6371 11.6306L11.434 9.43677ZM18.7234 21L10.0232 21C9.84572 21 9.67549 20.9295 9.54998 20.804C9.42448 20.6785 9.35397 20.5082 9.35397 20.3308C9.35397 20.1533 9.42448 19.983 9.54998 19.8575C9.67549 19.732 9.84572 19.6615 10.0232 19.6615L18.0542 19.6615C18.2317 19.6615 18.4019 19.591 18.5274 19.4655C18.6529 19.34 18.7234 19.1698 18.7234 18.9923L18.7234 5.60735C18.7234 5.42985 18.6529 5.25963 18.5274 5.13412C18.4019 5.00861 18.2317 4.9381 18.0542 4.9381L9.68859 4.9381C9.51109 4.9381 9.34087 4.86759 9.21536 4.74208C9.08985 4.61658 9.01934 4.44635 9.01934 4.26886C9.01934 4.09136 9.08985 3.92113 9.21536 3.79563C9.34087 3.67012 9.51109 3.59961 9.68859 3.59961L18.7234 3.59961C19.0784 3.59961 19.4188 3.74063 19.6699 3.99164C19.9209 4.24266 20.0619 4.58311 20.0619 4.9381L20.0619 19.6615C20.0619 20.0165 19.9209 20.3569 19.6699 20.608C19.4188 20.859 19.0784 21 18.7234 21Z" fill="#7E7E7E"/>
</svg>
