<svg width="24" height="24" viewBox="0 0 24 24" fill="none" xmlns="http://www.w3.org/2000/svg">
<path d="M16.5391 19.5703C16.5391 20.4274 15.8434 21.123 14.9863 21.123H4.80361C3.94647 21.123 3.25083 20.4274 3.25083 19.5703V9.36807C3.25083 8.95625 3.41443 8.56129 3.70563 8.27009C3.99683 7.97889 4.39178 7.81529 4.80361 7.81529H14.9863C15.3981 7.81529 15.7931 7.97889 16.0843 8.27009C16.3755 8.56129 16.5391 8.95625 16.5391 9.36807V19.5703ZM14.9863 19.7921C15.0451 19.7921 15.1015 19.7687 15.1431 19.7271C15.1847 19.6855 15.2081 19.6291 15.2081 19.5703V9.36807C15.2081 9.24474 15.1087 9.14625 14.9863 9.14625H4.80361C4.74478 9.14625 4.68835 9.16962 4.64675 9.21122C4.60515 9.25282 4.58178 9.30924 4.58178 9.36807V19.5703C4.58178 19.6291 4.60515 19.6855 4.64675 19.7271C4.68835 19.7687 4.74478 19.7921 4.80361 19.7921H14.9863Z" fill="#7E7E7E"/>
<path d="M21 13.3604C21.0001 13.5644 20.96 13.7664 20.8821 13.9549C20.8041 14.1434 20.6897 14.3147 20.5455 14.459C20.4013 14.6032 20.2301 14.7177 20.0416 14.7958C19.8532 14.8739 19.6512 14.9141 19.4472 14.9141H18.1118C17.9353 14.9141 17.7661 14.844 17.6413 14.7191C17.5165 14.5943 17.4464 14.4251 17.4464 14.2486C17.4464 14.0721 17.5165 13.9028 17.6413 13.778C17.7661 13.6532 17.9353 13.5831 18.1118 13.5831H19.4472C19.5061 13.5831 19.5625 13.5597 19.6041 13.5181C19.6457 13.4765 19.669 13.4201 19.669 13.3613L19.6646 4.93014C19.6646 4.80769 19.5661 4.70831 19.4428 4.70831H11.0134C10.9546 4.70831 10.8982 4.73169 10.8566 4.77329C10.815 4.81489 10.7916 4.87131 10.7916 4.93014V6.26997C10.7916 6.44646 10.7215 6.61573 10.5967 6.74053C10.4719 6.86533 10.3026 6.93544 10.1261 6.93544C9.94962 6.93544 9.78035 6.86533 9.65555 6.74053C9.53075 6.61573 9.46064 6.44646 9.46064 6.26997V4.93014C9.46064 4.51832 9.62423 4.12336 9.91544 3.83216C10.2066 3.54096 10.6016 3.37736 11.0134 3.37736H19.4428C19.8546 3.37736 20.2496 3.54096 20.5408 3.83216C20.832 4.12336 20.9956 4.51832 20.9956 4.93014L21 13.3604Z" fill="#7E7E7E"/>
</svg>
