<svg width="24" height="24" viewBox="0 0 24 24" fill="none" xmlns="http://www.w3.org/2000/svg">
<path d="M14.9367 6.21167C15.0647 6.29878 15.1528 6.43314 15.1817 6.58521C15.2105 6.73727 15.1778 6.89458 15.0907 7.02253C15.0036 7.15048 14.8693 7.23859 14.7172 7.26747C14.5651 7.29635 14.4078 7.26364 14.2799 7.17654C13.2027 6.44427 11.9114 6.09356 10.6118 6.18029C9.3122 6.26702 8.079 6.7862 7.10868 7.6551C6.13835 8.52401 5.48674 9.69266 5.25765 10.9749C5.02857 12.2571 5.23518 13.579 5.84458 14.7302C6.45398 15.8814 7.43111 16.7954 8.62029 17.3268C9.80946 17.8582 11.1423 17.9764 12.4064 17.6624C13.6705 17.3484 14.7931 16.6205 15.5955 15.5944C16.3979 14.5684 16.8338 13.3034 16.8338 12.0009C16.8338 11.8462 16.8952 11.6978 17.0046 11.5884C17.114 11.479 17.2624 11.4175 17.4171 11.4175C17.5719 11.4175 17.7202 11.479 17.8296 11.5884C17.939 11.6978 18.0005 11.8462 18.0005 12.0009C18.0003 13.5639 17.4771 15.0819 16.5141 16.3131C15.5512 17.5442 14.2038 18.4177 12.6869 18.7943C11.1699 19.1709 9.5705 19.0289 8.14355 18.3911C6.71659 17.7532 5.54415 16.6561 4.81304 15.2747C4.08192 13.8932 3.83418 12.3067 4.1093 10.7681C4.38442 9.22947 5.16656 7.82718 6.33111 6.78465C7.49566 5.74211 8.97562 5.11931 10.5352 5.01547C12.0948 4.91163 13.6442 5.33273 14.9367 6.21167Z" fill="#7E7E7E"/>
<path d="M14.2371 13.8503C14.1726 13.8937 14.1001 13.9238 14.0238 13.9387C13.9475 13.9537 13.869 13.9533 13.7929 13.9375C13.7168 13.9217 13.6447 13.8908 13.5806 13.8468C13.5166 13.8027 13.4621 13.7463 13.4202 13.6808C13.3783 13.6153 13.3499 13.5422 13.3366 13.4656C13.3234 13.389 13.3256 13.3105 13.3431 13.2348C13.3607 13.1591 13.3931 13.0876 13.4386 13.0246C13.4842 12.9616 13.5418 12.9084 13.6082 12.868L17.6707 10.2697C17.7352 10.2263 17.8077 10.1963 17.8839 10.1813C17.9602 10.1664 18.0387 10.1668 18.1148 10.1826C18.1909 10.1984 18.2631 10.2292 18.3271 10.2733C18.3911 10.3174 18.4457 10.3738 18.4876 10.4393C18.5295 10.5047 18.5579 10.5779 18.5711 10.6545C18.5843 10.7311 18.5821 10.8095 18.5646 10.8852C18.5471 10.961 18.5146 11.0324 18.4691 11.0954C18.4236 11.1584 18.3659 11.2117 18.2995 11.2521L14.2371 13.8503Z" fill="#7E7E7E"/>
<path d="M20.2749 14.4673C20.3329 14.6077 20.3337 14.7652 20.2774 14.9062C20.2211 15.0473 20.1119 15.1608 19.9732 15.2226C19.8345 15.2845 19.6771 15.2898 19.5345 15.2374C19.3919 15.185 19.2754 15.0791 19.2097 14.9421L17.4491 10.9987C17.4179 10.9286 17.4007 10.8532 17.3987 10.7765C17.3966 10.6999 17.4096 10.6235 17.437 10.5519C17.4644 10.4803 17.5057 10.4148 17.5584 10.3591C17.6111 10.3035 17.6743 10.2587 17.7443 10.2275C17.8143 10.1962 17.8898 10.1791 17.9665 10.177C18.0431 10.1749 18.1194 10.1879 18.1911 10.2153C18.2627 10.2427 18.3282 10.284 18.3838 10.3367C18.4395 10.3894 18.4843 10.4526 18.5155 10.5226L20.2749 14.4673Z" fill="#7E7E7E"/>
</svg>
