<svg width="24" height="24" viewBox="0 0 24 24" fill="none" xmlns="http://www.w3.org/2000/svg">
<path fill-rule="evenodd" clip-rule="evenodd" d="M12.3252 10.0195C12.6794 10.0195 12.9666 10.3067 12.9666 10.661V17.451L15.0788 15.3389C15.3293 15.0884 15.7354 15.0884 15.9859 15.3389C16.2364 15.5894 16.2364 15.9955 15.9859 16.246L12.7787 19.4532C12.5282 19.7037 12.1221 19.7037 11.8716 19.4532L8.66443 16.246C8.41394 15.9955 8.41394 15.5894 8.66443 15.3389C8.91493 15.0884 9.32106 15.0884 9.57156 15.3389L11.6837 17.451V10.661C11.6837 10.3067 11.9709 10.0195 12.3252 10.0195Z" fill="#1D2122"/>
<path fill-rule="evenodd" clip-rule="evenodd" d="M5.22997 4.61656C5.05465 4.61656 4.89387 4.68222 4.78125 4.7878C4.66998 4.89212 4.61558 5.02478 4.61558 5.15402V6.84533H19.3828V5.15402C19.3828 5.02478 19.3284 4.89212 19.2171 4.7878C19.1045 4.68222 18.9437 4.61656 18.7684 4.61656H5.22997ZM20.6156 5.15402C20.6156 4.67122 20.4106 4.21691 20.0603 3.88845C19.7113 3.56126 19.2459 3.38379 18.7684 3.38379H5.22997C4.75245 3.38379 4.28712 3.56126 3.93811 3.88845C3.58776 4.21691 3.38281 4.67122 3.38281 5.15402V17.8463C3.38281 18.3291 3.58776 18.7834 3.93811 19.1119C4.28712 19.4391 4.75245 19.6166 5.22997 19.6166H6.46074C6.80116 19.6166 7.07712 19.3406 7.07712 19.0002C7.07712 18.6598 6.80116 18.3838 6.46074 18.3838H5.22997C5.05465 18.3838 4.89387 18.3181 4.78125 18.2125C4.66998 18.1082 4.61558 17.9756 4.61558 17.8463V8.0781H19.3828V17.8463C19.3828 17.9756 19.3284 18.1082 19.2171 18.2125C19.1045 18.3181 18.9437 18.3838 18.7684 18.3838H17.5377C17.1972 18.3838 16.9213 18.6598 16.9213 19.0002C16.9213 19.3406 17.1972 19.6166 17.5377 19.6166H18.7684C19.2459 19.6166 19.7113 19.4391 20.0603 19.1119C20.4106 18.7834 20.6156 18.3291 20.6156 17.8463V5.15402Z" fill="#1D2122"/>
</svg>
